<?xml version="1.0" standalone="no"?>
<!DOCTYPE svg PUBLIC "-//W3C//DTD SVG 20010904//EN"
 "http://www.w3.org/TR/2001/REC-SVG-20010904/DTD/svg10.dtd">
<svg version="1.0" xmlns="http://www.w3.org/2000/svg"
 width="1024.000000pt" height="1024.000000pt" viewBox="0 0 1024.000000 1024.000000"
 preserveAspectRatio="xMidYMid meet">
<metadata>
Created by potrace 1.11, written by Peter Selinger 2001-2013
</metadata>
<g transform="translate(0.000000,1024.000000) scale(0.100000,-0.100000)"
fill="#000000" stroke="none">
<path d="M3877 7994 c-1 -1 -49 -4 -107 -8 -58 -3 -114 -7 -125 -10 -11 -2
-47 -7 -80 -11 -32 -4 -68 -9 -80 -11 -11 -2 -47 -9 -80 -15 -204 -36 -473
-113 -683 -196 -145 -57 -399 -180 -447 -215 -5 -5 -57 -39 -115 -76 -256
-167 -489 -389 -667 -637 -253 -352 -425 -826 -478 -1315 -3 -30 -9 -73 -12
-95 -3 -22 -8 -510 -10 -1085 l-4 -1046 588 1 588 0 1 950 c1 523 4 979 8
1014 14 137 18 169 38 261 92 432 320 771 673 998 81 53 258 141 330 167 28 9
59 21 70 26 23 10 217 66 255 73 228 44 287 49 663 49 l317 0 0 589 c0 463 -3
588 -12 589 -19 2 -629 4 -631 3z"/>
<path d="M4687 7992 c-16 -3 -17 -162 -17 -2363 l0 -2360 948 4 c926 4 1008 5
1162 27 159 23 187 28 295 51 938 207 1606 815 1943 1769 64 179 121 388 147
535 18 98 36 210 41 255 3 30 8 71 12 90 10 61 14 1983 3 1989 -7 5 -1056 6
-1147 2 l-20 -1 0 -890 c1 -1038 -2 -1119 -45 -1329 -77 -370 -259 -676 -542
-909 -168 -138 -455 -274 -712 -338 -126 -31 -131 -33 -180 -39 -22 -3 -51 -8
-65 -10 -75 -14 -140 -17 -387 -19 l-273 -3 0 36 c-1 20 -1 816 -1 1769 -1
1610 -2 1732 -17 1733 -48 3 -1131 4 -1145 1z"/>
<path d="M3867 6664 c-1 -1 -34 -5 -74 -8 -262 -24 -558 -122 -788 -261 -243
-146 -440 -371 -553 -630 -35 -80 -88 -253 -97 -317 -4 -24 -11 -62 -16 -85
-11 -51 -25 -264 -20 -309 2 -20 148 -7 317 27 28 5 63 12 78 15 52 9 220 66
311 104 354 150 619 400 765 724 51 112 105 301 125 436 5 41 17 197 19 261 1
43 0 44 -32 45 -18 0 -33 -1 -35 -2z"/>
<path d="M7859 6226 c-2 -2 -35 -6 -74 -9 -151 -13 -304 -47 -468 -104 -460
-159 -779 -462 -927 -878 -36 -103 -66 -225 -76 -305 -3 -30 -8 -58 -10 -61
-2 -3 -6 -66 -10 -138 l-7 -132 74 5 c467 37 880 218 1149 503 199 211 318
464 375 798 7 45 18 192 19 259 1 53 -1 59 -20 62 -12 2 -23 2 -25 0z"/>
<path d="M1196 3010 c-59 -18 -84 -58 -87 -140 -2 -48 -3 -50 -31 -50 -58 0
-77 -12 -71 -43 4 -21 10 -24 51 -23 l47 1 1 -239 c0 -253 1 -254 47 -242 l23
5 -1 228 c-1 125 0 233 2 238 2 7 34 11 78 10 l75 -1 0 33 0 32 -52 0 c-110
-2 -104 -4 -103 46 2 66 28 89 96 86 76 -2 107 29 47 48 -51 16 -91 20 -122
11z"/>
<path d="M5650 2642 l0 -373 35 3 35 2 0 371 0 370 -35 0 -35 0 0 -373z"/>
<path d="M5910 3013 c-14 -3 -15 -50 -15 -371 l0 -367 33 -1 c23 -1 32 4 33
15 1 9 2 174 3 368 1 344 1 352 -19 355 -11 2 -27 2 -35 1z"/>
<path d="M3874 2995 c-14 -10 -18 -29 -18 -94 -1 -65 -4 -81 -16 -82 -30 -1
-72 -8 -76 -12 -11 -11 -12 -47 -1 -48 7 -1 26 -3 42 -4 17 -2 35 -3 40 -4 7
-1 10 -67 10 -188 -1 -208 9 -249 66 -278 37 -19 100 -19 147 1 l37 15 -24 20
c-20 17 -34 19 -71 14 -39 -5 -49 -3 -65 15 -18 20 -20 38 -20 211 0 104 2
190 5 190 3 1 41 2 85 3 44 0 79 4 78 9 -2 4 -3 18 -3 31 0 24 -2 25 -73 23
-40 0 -77 2 -83 5 -5 4 -10 44 -9 92 0 72 -2 86 -17 89 -9 3 -25 -1 -34 -8z"/>
<path d="M1554 2812 c-131 -37 -217 -167 -201 -302 26 -218 317 -321 478 -168
145 138 107 371 -74 453 -65 29 -140 36 -203 17z m130 -63 c120 -23 194 -140
164 -258 -16 -61 -76 -124 -138 -144 -64 -21 -73 -21 -138 -2 -197 59 -202
332 -7 399 46 16 59 17 119 5z"/>
<path d="M2227 2818 c-46 -10 -95 -33 -124 -61 l-23 -20 0 36 c0 23 -5 37 -12
38 -7 0 -21 2 -30 4 -15 3 -18 -5 -18 -43 -1 -48 -1 -452 0 -484 0 -14 7 -17
33 -15 l32 3 2 164 c1 91 2 175 2 187 2 57 105 125 191 127 31 1 41 6 50 25 6
13 7 27 3 32 -13 12 -66 16 -106 7z"/>
<path d="M2606 2815 c-36 -7 -70 -23 -96 -44 l-40 -32 -1 26 c-1 14 -2 31 -3
38 -1 12 -55 20 -57 8 -1 -3 -2 -126 -2 -273 l-2 -267 30 3 c17 2 32 4 35 5 3
0 5 79 4 173 -1 154 1 177 19 210 24 45 95 85 161 91 52 5 60 11 70 43 6 19 2
22 -28 26 -19 2 -60 -1 -90 -7z"/>
<path d="M3015 2824 c-5 -1 -31 -5 -56 -9 -123 -16 -222 -150 -212 -288 8
-127 132 -244 264 -252 61 -4 146 23 196 61 62 47 1 64 -83 23 -107 -51 -238
-7 -285 95 -36 80 -47 76 206 76 218 0 225 1 245 22 56 60 -16 190 -135 244
-46 20 -115 35 -140 28z m121 -91 c45 -23 92 -78 96 -112 l3 -24 -203 -1
c-229 -1 -226 -2 -171 73 59 83 184 112 275 64z"/>
<path d="M5240 2820 c-57 -11 -140 -59 -140 -82 0 -5 11 -13 25 -18 21 -8 36
-5 75 15 121 61 215 14 233 -118 l4 -34 -86 5 c-165 9 -266 -34 -288 -121 -21
-85 15 -147 105 -183 71 -28 142 -16 266 44 5 3 6 -2 4 -9 -8 -23 11 -49 36
-49 13 0 26 6 28 13 3 6 4 86 3 177 -1 128 -6 177 -19 218 -20 59 -55 106 -95
126 -33 17 -104 25 -151 16z m182 -309 c13 -1 16 -12 17 -59 l0 -59 -50 -21
c-170 -75 -302 -30 -254 85 22 51 106 67 287 54z"/>
<path d="M6325 2819 c-74 -10 -101 -24 -153 -76 -97 -98 -109 -229 -31 -343
84 -123 231 -158 368 -88 72 37 82 51 51 68 -18 10 -33 7 -86 -16 -53 -22 -73
-26 -120 -21 -92 9 -177 84 -186 162 l-3 30 225 0 c124 0 231 4 238 9 72 44
-25 218 -143 258 -68 22 -101 26 -160 17z m142 -80 c53 -20 130 -115 110 -136
-11 -10 -407 -9 -407 2 0 20 46 89 71 107 61 46 149 56 226 27z"/>
<path d="M6969 2819 c-51 -8 -103 -31 -136 -62 l-23 -20 0 36 c0 30 -4 38 -24
43 -14 3 -29 4 -33 1 -7 -4 -11 -508 -4 -539 1 -8 61 -7 62 1 0 3 2 85 3 181
2 211 5 221 98 270 21 11 59 22 85 24 45 3 78 27 70 50 -5 16 -49 23 -98 15z"/>
<path d="M8000 2816 c-65 -13 -117 -43 -159 -92 -53 -60 -65 -92 -66 -179 0
-69 4 -86 27 -125 60 -101 141 -148 258 -148 114 0 192 42 246 135 41 69 50
147 24 222 -47 140 -184 217 -330 187z m143 -76 c46 -15 112 -88 124 -139 31
-119 -41 -234 -163 -262 -99 -23 -203 30 -248 126 -26 54 -17 138 19 194 58
87 159 118 268 81z"/>
<path d="M8629 2814 c-25 -7 -58 -25 -72 -38 -15 -14 -28 -20 -28 -13 -1 7 -2
17 -4 22 -1 6 -3 15 -3 20 -1 6 -15 11 -32 10 l-30 0 0 -273 0 -273 33 3 32 3
2 198 c2 218 5 232 64 263 40 20 113 20 145 -1 49 -32 57 -73 58 -275 l1 -185
33 -1 c17 -1 32 2 33 5 0 3 2 94 3 201 2 167 5 199 20 222 32 49 136 71 193
40 49 -27 57 -63 61 -269 4 -204 5 -206 55 -195 16 3 18 19 17 197 -2 195 -7
233 -43 287 -35 51 -116 71 -215 54 -33 -6 -50 -17 -79 -51 l-36 -44 -16 31
c-29 57 -116 85 -192 62z"/>
<path d="M3470 2804 c-78 -27 -114 -95 -90 -168 14 -44 51 -71 138 -102 117
-43 146 -77 117 -137 -29 -63 -112 -84 -184 -48 -26 14 -50 19 -66 15 -28 -7
-29 -8 -15 -34 12 -23 102 -53 155 -52 44 1 109 25 134 49 59 58 69 140 25
193 -28 32 -97 72 -149 84 -86 21 -124 95 -66 129 37 22 66 21 120 -3 41 -19
52 -18 77 4 8 8 6 16 -10 29 -56 49 -121 64 -186 41z"/>
<path d="M4130 2806 c0 -7 18 -50 40 -95 22 -45 40 -83 40 -85 0 -2 28 -64 63
-137 35 -74 71 -153 82 -176 17 -41 20 -43 60 -43 46 0 36 -16 130 195 17 39
36 81 42 95 11 23 12 23 12 4 1 -11 4 -23 7 -27 3 -3 32 -63 63 -134 l57 -128
42 -3 c36 -3 43 0 51 20 5 13 23 55 41 93 33 74 44 98 79 180 12 28 26 59 31
70 4 11 20 46 34 77 49 108 49 109 18 102 -55 -12 -39 12 -141 -208 -28 -59
-51 -110 -51 -111 0 -2 -15 -36 -34 -75 l-33 -71 -67 147 c-36 81 -66 154 -66
163 0 9 14 45 30 81 29 65 26 85 -9 73 -32 -12 -44 -29 -87 -121 -24 -52 -44
-95 -44 -97 0 -3 -53 -120 -97 -213 -9 -18 -17 -31 -18 -30 -1 2 -19 41 -40
88 -20 47 -45 103 -55 125 -10 22 -35 78 -55 125 -21 47 -45 93 -54 102 -20
22 -71 32 -71 14z"/>
<path d="M7468 2806 c-95 -26 -167 -94 -198 -187 -22 -65 -17 -131 17 -197 52
-102 137 -154 255 -153 60 0 82 5 136 32 l64 31 -21 21 c-21 21 -21 21 -73 2
-134 -49 -253 -3 -306 118 -32 73 0 183 68 236 63 50 130 59 205 26 62 -28 77
-30 106 -14 19 10 20 12 4 29 -24 26 -107 59 -162 65 -26 2 -69 -2 -95 -9z"/>
<path d="M7086 2355 c-20 -20 -21 -59 -2 -74 21 -18 66 -9 82 14 30 46 -40 99
-80 60z"/>
</g>
</svg>
