<svg id="Layer_1" xmlns="http://www.w3.org/2000/svg" viewBox="0 0 82.3 16.1"><style>.st0{fill:#a8aaad}</style><path class="st0" d="M1.4 15.9H0V.2h5.5c.6 0 1.2.1 1.7.3s1 .5 1.4.9c.4.5.8.9 1 1.5.2.5.3 1.1.3 1.7 0 .5-.1 1.1-.3 1.6-.2.5-.4 1-.8 1.4-.3.4-.7.7-1.2 1-.3.2-.8.3-1.3.4l5.2 6.9h-.6c-.8 0-1.3-.3-1.7-.8L4.6 9H1.4v6.9zm0-14.3v6.1h4.1c.4 0 .8-.1 1.2-.2.4-.2.7-.4 1-.6.3-.3.5-.6.7-1 .1-.5.2-.9.2-1.3s-.1-.8-.3-1.2c-.1-.4-.4-.7-.6-1s-.6-.4-1-.6-.8-.2-1.2-.2H1.4zM23 15.9h-9.4V.2H23v1.4h-8v5.7h6.5v1.4H15v5.9h8v1.3zm9.1-13.7c-.2-.1-.3-.2-.4-.3s-.3-.2-.4-.3c-.1-.1-.3-.1-.5-.2s-.5 0-.8 0c-.4 0-.8.1-1.2.2-.4.1-.7.3-1 .6-.3.2-.5.5-.7.8-.2.3-.3.7-.3 1 0 .4.1.7.2 1s.3.5.5.7c.3.2.6.4 1 .6s.9.4 1.5.6c.4.1.7.2 1 .3s.5.2.8.3c.2.1.5.2.7.3s.4.3.6.4c.5.4.9.9 1.1 1.5s.3 1.2.3 1.9-.1 1.3-.4 1.9c-.3.5-.6 1-1.1 1.4s-1 .7-1.6.9c-.6.2-1.3.3-2 .3-1.4 0-2.5-.4-3.5-1.2-.3-.2-.5-.5-.7-.7-.2-.2-.3-.4-.4-.6l.2-.1c.2-.1.5-.2.7-.2.2 0 .3 0 .5.1.2 0 .3.1.4.3.3.3.6.5.8.6.2.2.5.3.7.3.2.1.4.1.6.1h.6c.4 0 .9 0 1.3-.1s.8-.3 1.2-.5c.4-.3.6-.6.9-1 .2-.4.3-.9.3-1.4 0-.6-.1-1.1-.3-1.4s-.4-.7-.7-.9c-.3-.2-.7-.4-1.1-.6-.4-.2-.9-.3-1.4-.5-.5-.3-1-.5-1.6-.8-.5-.2-1-.5-1.3-.8-.4-.3-.6-.6-.8-1.1-.2-.4-.3-1-.3-1.7 0-.6.1-1.2.4-1.7s.6-.9 1.1-1.3c.4-.4.9-.6 1.5-.8s1-.1 1.5-.1.9.1 1.3.2.7.3 1 .5.6.4.8.6c.3.2.5.5.7.7l-.3.2c-.1.1-.2.1-.3.2-.1 0-.2.1-.4.1-.3-.1-.5-.1-.7-.3zm6.1 7.7c0 .7.1 1.3.4 1.9s.6 1.1 1 1.5 1 .8 1.5 1c.6.3 1.2.4 1.9.4s1.3-.1 1.9-.4c.6-.3 1.1-.6 1.5-1s.8-1 1-1.5c.3-.6.4-1.2.4-1.9V.2h1.4v9.7c0 .9-.2 1.7-.5 2.4s-.8 1.4-1.3 2c-.6.6-1.2 1-2 1.3-.8.3-1.6.5-2.4.5-.9 0-1.7-.2-2.4-.5-.8-.3-1.4-.8-2-1.3-.6-.6-1-1.2-1.3-2s-.5-1.6-.5-2.4V.2h1.4v9.7zm30.9 6h-1.4V2.4v.2c0 .1 0 .1-.1.2 0 .1 0 .1-.1.2l-5.8 13h-1.6L54.4 3c-.1-.1-.1-.2-.1-.3s0-.2-.1-.3V16h-1.4V.2h1c.3 0 .5.1.7.2.3.2.5.3.6.6l5.8 13.1c0 .1.1.2.1.2 0-.1 0-.2.1-.2L66.9 1c.1-.2.3-.4.5-.6.2-.1.5-.2.7-.2h1v15.7zm13.2 0h-9.4V.2h9.4v1.4h-8v5.7h6.5v1.4h-6.5v5.9h8v1.3z"/></svg>