<svg id="Layer_1" xmlns="http://www.w3.org/2000/svg" viewBox="0 0 121.4 16.1"><style>.st0{fill:#a8aaad}</style><path class="st0" d="M0 16V.2h5.8c.7 0 1.4.1 2.1.3s1.3.5 1.9.8 1.1.8 1.6 1.2c.5.5.9 1 1.2 1.6s.6 1.2.8 1.9.3 1.4.3 2.1-.1 1.4-.3 2.1c-.2.7-.5 1.3-.8 1.9s-.8 1.1-1.2 1.6-1 .9-1.6 1.2-1.2.6-1.9.8-1.4.3-2.1.3H0zm5.8-1.4c.9 0 1.7-.2 2.5-.5s1.5-.8 2.1-1.4c.6-.6 1.1-1.3 1.4-2.1s.5-1.6.5-2.5-.2-1.7-.5-2.5-.8-1.5-1.4-2.1-1.3-1.1-2.1-1.4c-.8-.4-1.6-.5-2.5-.5H1.4v13h4.4zM26 16h-9.4V.2H26v1.4h-8v5.7h6.5v1.4H18v5.9h8V16zm19.2 0h-1.4V2.4v.2c0 .1 0 .1-.1.2 0 .1 0 .1-.1.2l-5.8 13h-1.6L30.5 3c-.1-.1-.1-.2-.1-.3s0-.2-.1-.3V16H29V.2h1c.3 0 .5.1.7.2.3.2.4.4.5.6L37 14.1c0 .1.1.2.1.2 0-.1 0-.2.1-.2L43.1 1c.1-.2.3-.4.5-.6.2-.1.5-.2.7-.2h1L45.2 16zm3-7.9c0-1.1.2-2.2.6-3.1.4-1 1-1.8 1.7-2.6s1.6-1.3 2.6-1.7 2-.6 3.1-.6 2.2.2 3.1.6 1.8 1 2.6 1.7c.7.7 1.3 1.6 1.7 2.6s.6 2 .6 3.1-.2 2.2-.6 3.1-1 1.8-1.7 2.6c-.7.7-1.6 1.3-2.6 1.7-1 .4-2 .6-3.1.6s-2.2-.2-3.1-.6c-1-.4-1.8-1-2.6-1.7-.7-.7-1.3-1.6-1.7-2.6-.4-1-.6-2-.6-3.1zm1.3 0c0 .6.1 1.2.2 1.8s.4 1.1.7 1.6.6 1 1 1.4c.4.4.9.8 1.4 1 .5.3 1 .5 1.6.7s1.2.2 1.8.2 1.2-.1 1.8-.2 1.1-.4 1.6-.7.9-.6 1.4-1c.4-.4.8-.9 1-1.4.3-.5.5-1 .7-1.6s.2-1.2.2-1.8c0-.9-.2-1.8-.5-2.6-.4-.8-.8-1.6-1.4-2.2s-1.3-1.1-2.1-1.4c-.8-.4-1.7-.5-2.6-.5-.6 0-1.2.1-1.8.2s-1.1.4-1.6.7-.9.6-1.4 1c-.4.4-.8.9-1 1.4s-.5 1-.7 1.6-.3 1.1-.3 1.8zM75.6 16h-1.4V.2h5.5c.6 0 1.2.1 1.7.3.5.2 1 .5 1.4.9.4.4.7.9.9 1.4s.3 1.1.3 1.7c0 .5-.1 1.1-.3 1.6-.2.5-.4 1-.8 1.4-.3.4-.7.7-1.2 1-.2.3-.7.5-1.2.5l5.2 6.9H85c-.8 0-1.3-.3-1.7-.8L78.8 9h-3.2v7zm0-14.4v6.1h4.1c.4 0 .8-.1 1.2-.2.4-.2.7-.4 1-.6.3-.3.5-.6.7-1 .2-.4.2-.8.2-1.2s-.1-.8-.2-1.2c-.2-.4-.4-.7-.7-1s-.6-.5-1-.7c-.4-.2-.8-.2-1.2-.2h-4.1zM97.2 16h-9.4V.2h9.4v1.4h-8v5.7h6.5v1.4h-6.5v5.9h8V16zm12.5 0h-9.4V.2h9.4v1.4h-8v5.7h6.5v1.4h-6.5v5.9h8V16zm3.1 0V.2h1.4v14.4h7.2V16h-8.6z"/></svg>