<svg id="Layer_1" xmlns="http://www.w3.org/2000/svg" viewBox="-175.2 314.1 240.4 166.6"><style>.st0{fill:#a7a9ac}.st1{fill:#f7941e}</style><path class="st0" d="M-72.2 314.1h-17.2s-85.8 0-85.8 85.8v51.5h34.3V400c0-51.5 51.5-51.5 51.5-51.5h17.2v-34.4zm103.1 0v51.5c0 51.5-51.5 51.5-51.5 51.5h-12.9v-103h-34.3v137.4h47.2c85.8 0 85.8-85.9 85.8-85.9v-51.5H30.9z"/><path class="st0" d="M-89.3 352.8s-47.2 0-47.2 47.2c-.1 0 47.2 0 47.2-47.2z"/><path class="st1" d="M26.6 365.6s-47.2 0-47.2 47.2c-.1.1 47.2.1 47.2-47.2z"/><path class="st0" d="M-171.8 480.5v-14h-2.9v-1.1c0-.5.6-.7 1.9-.7h1v-1.9c0-.6.1-1.1.3-1.6.2-.5.4-.9.8-1.2.3-.3.7-.6 1.2-.8.5-.2 1.1-.3 1.6-.3.2 0 .5 0 .8.1.6.1 1.2.3 1.7.5.3.1.5.3.7.4l-.3.5c-.2.2-.4.4-.5.4-.2.1-.4.1-.7.1-.3 0-.6-.1-1.1-.2h-.6c-.3 0-.6.1-.8.2-.2.1-.4.3-.6.5-.2.2-.3.4-.4.7-.1.3-.1.5-.1.7v1.9h4.5v1.8h-4.5v14h-2zm7.1-7.9c0-.7.1-1.5.3-2.2.2-.7.5-1.3.8-1.9.4-.6.8-1.2 1.3-1.6.5-.5 1.1-.9 1.7-1.3.6-.4 1.3-.6 2-.8.7-.2 1.5-.3 2.2-.3 1.1 0 2.2.2 3.2.6 1 .4 1.9 1 2.7 1.7.8.7 1.4 1.6 1.8 2.6.4 1 .7 2.1.7 3.2s-.2 2.2-.7 3.2c-.4 1-1 1.8-1.8 2.6-.8.7-1.6 1.3-2.7 1.7-1 .4-2.1.6-3.2.6-.7 0-1.5-.1-2.2-.3-.7-.2-1.4-.5-2-.8-.6-.3-1.2-.8-1.7-1.3s-.9-1-1.3-1.6c-.4-.6-.7-1.3-.8-1.9-.2-.7-.3-1.4-.3-2.2zm2 0c0 .9.2 1.7.5 2.4.3.8.8 1.4 1.4 2 1.2 1.2 2.8 1.8 4.5 1.8.9 0 1.7-.2 2.5-.5s1.4-.8 2-1.3c.6-.6 1-1.2 1.4-2 .3-.8.5-1.6.5-2.4s-.2-1.7-.5-2.4c-.3-.8-.8-1.4-1.4-2-.6-.6-1.3-1-2-1.3-.8-.3-1.6-.5-2.5-.5-.9 0-1.7.2-2.5.5s-1.5.8-2 1.3c-.6.6-1 1.2-1.4 2-.4.7-.5 1.6-.5 2.4zm19.1-7.8c.1.1.1.2.1.3 0 .1.1.2.1.4v1.8c.2-.4.5-.8.9-1.1.4-.3.9-.6 1.4-.9.5-.3 1.1-.4 1.7-.6.6-.1 1.2-.2 1.8-.2.6 0 1.2.1 1.8.3l-.2.8c0 .2-.1.4-.2.5l-.3.3c-.1.1-.3.1-.4.1h-.7c-.8 0-1.5.1-2.1.4-.7.2-1.3.6-1.8.9-.5.4-.9.8-1.2 1.3-.3.5-.5.9-.5 1.4v10h-2v-15.8c-.2.1 1.6.1 1.6.1zm11.3 0c0 .1.1.2.1.3 0 .1.1.2.1.4v1.8c.2-.4.5-.8.9-1.1.4-.3.9-.6 1.4-.9.5-.3 1.1-.4 1.7-.6.6-.1 1.2-.2 1.8-.2.6 0 1.2.1 1.8.3l-.2.8c0 .2-.1.4-.2.5l-.3.3c-.1.1-.3.1-.4.1h-.7c-.8 0-1.5.1-2.1.4-.7.2-1.3.6-1.8.9-.5.4-.9.8-1.2 1.3-.3.5-.5.9-.5 1.4v10h-2v-15.8h1.6v.1zm16.8-.3c1.8 0 3.6.6 5.1 1.7.7.5 1.3 1.2 1.8 1.9s.9 1.6 1.1 2.4c.1.4.1.9-.1 1.3-.1.2-.2.4-.4.6-.3.4-.8.6-1.3.6h-12.6c0 .8.2 1.6.6 2.3s.8 1.3 1.4 1.8c.6.5 1.2.9 2 1.2.8.3 1.6.4 2.4.4.3 0 .6 0 .9-.1.3-.1.6-.1.9-.2.3-.1.6-.2.9-.4.3-.1.6-.3.8-.5.1-.1.3-.2.5-.2s.4-.1.5-.1c.2 0 .3 0 .4.1.1 0 .2.1.4.1.1.1.2.1.3.2.1.1.2.2.4.3-.4.4-.8.7-1.3 1-.5.3-1 .6-1.5.8-.5.2-1.1.4-1.6.6-.6.1-1.1.2-1.7.2-.8 0-1.5-.1-2.2-.3-.7-.2-1.4-.5-2-.8-.6-.3-1.2-.8-1.7-1.3s-.9-1-1.3-1.6c-.4-.6-.7-1.3-.9-1.9-.2-.7-.3-1.4-.3-2.2 0-1.1.2-2.2.7-3.2.4-1 1-1.8 1.8-2.6.8-.7 1.7-1.3 2.7-1.7 1.1-.2 2.2-.4 3.3-.4zm0 1.9c-.8 0-1.6.1-2.3.4-.7.3-1.4.6-1.9 1.1-.6.5-1 1-1.4 1.7-.4.7-.6 1.4-.7 2.1 0-.1.1-.3.3-.4.1-.2.3-.2.5-.2h11.6c-.2-.7-.5-1.4-.9-2-.8-1.1-1.9-2-3.2-2.4-.6-.2-1.3-.3-2-.3zm9.3 11.9c.3-.2.6-.3.8-.4.2-.1.4-.1.6-.1.2 0 .4 0 .5.1.2 0 .4.1.7.3.3.2.6.4 1 .5.4.1.7.2 1.1.2.4 0 .8-.1 1.3-.2.4-.1.8-.3 1.2-.5.3-.2.6-.5.9-.9.2-.4.3-.8.4-1.3 0-.3-.1-.6-.2-.9-.1-.3-.3-.5-.5-.7-.2-.2-.6-.4-1-.7s-.9-.4-1.6-.6l-.3-.1c-.5-.2-1.1-.4-1.6-.6-.5-.2-1-.5-1.4-.8-.4-.3-.8-.7-1-1.2-.3-.5-.4-1.1-.4-1.9 0-.6.1-1.2.4-1.6.3-.5.6-.9 1.1-1.2.4-.3.9-.6 1.5-.7.5-.2 1.1-.3 1.6-.3h.1c.5 0 1 .1 1.5.3.8.3 1.5.7 2.1 1.3.3.2.5.5.6.6l-.3.2c-.2.1-.3.3-.5.4-.2.1-.4.2-.6.2-.1 0-.3 0-.4-.1-.1-.1-.2-.1-.4-.2-.1-.1-.3-.1-.4-.2-.1-.1-.3-.2-.4-.2-.3-.1-.5-.2-.8-.3s-.4-.1-.6-.1c-.5 0-.9.1-1.2.2-.3.1-.6.3-.8.5-.2.2-.4.4-.5.6-.1.2-.1.4-.1.5 0 .4.1.8.3 1s.4.5.7.7c.3.2.6.4 1 .5.4.1.8.3 1.1.4h.2c.6.2 1.2.4 1.7.7.6.3 1.1.6 1.5.9.4.4.8.8 1.1 1.3.3.5.4 1.1.4 1.8 0 .6-.1 1.3-.4 1.8-.3.6-.7 1.1-1.2 1.5-.5.4-1.1.8-1.8 1-.7.3-1.4.4-2.2.4-.9 0-1.9-.2-2.7-.6-.9-.1-1.6-.7-2.1-1.5zm16.6-1.5c0 .2 0 .5.1.7.1.3.2.5.4.7.2.2.4.4.6.5.2.1.5.2.8.2l.5-.1c.4-.1.8-.2 1.1-.2.3 0 .6.1.9.3.2.2.5.4.7.7v.1c-.2.1-.5.3-.7.4-.6.2-1.1.4-1.7.5-.3.1-.5.1-.8.1-.6 0-1.1-.1-1.6-.3-.5-.2-.9-.5-1.2-.8-.3-.4-.6-.8-.8-1.2-.2-.5-.3-1-.3-1.6v-10.3h-2.9v-1.1c0-.5.6-.7 1.9-.7h1v-3.6c0-.5.1-.8.2-1.1.1-.3.2-.5.3-.7h1.5v5.4h4.9v1.8h-4.9v10.3zm5.8-12h.9c.4 0 .8.1 1.1.3.3.2.6.5.7.8l5.3 11.8c.1.2.2.4.2.6s.1.3.1.4c0-.2.1-.4.1-.5 0-.1.1-.3.2-.5l5.4-11.8c.2-.3.4-.6.7-.8.3-.2.7-.3 1-.3h.9l-1 2.3c-.3.7-.7 1.5-1 2.2l3.8 8.4c.1.2.2.4.2.6s.1.3.1.4c0-.2 0-.4.1-.5 0-.1.1-.3.2-.5l5.4-11.8c.2-.3.4-.6.7-.8.3-.2.7-.3 1-.3h.9c-.6 1.3-1.2 2.7-1.8 4l-1.7 3.9-1.7 3.9c-.6 1.3-1.2 2.6-1.8 4h-2.3l-3.7-8.2c0-.1-.1-.2-.1-.3v-.8c0-.1 0-.1.1-.2-.3.7-.7 1.5-1 2.3-.4.8-.7 1.6-1.1 2.4-.4.8-.7 1.6-1.1 2.4-.4.8-.7 1.6-1.1 2.4h-2.3l-7.4-15.8zm28.3 2.2c.1-.2.3-.3.5-.5.1-.1.3-.3.5-.4.2-.1.4-.3.5-.4.6-.4 1.3-.7 2-.9.7-.2 1.5-.3 2.4-.3.8 0 1.6.1 2.2.3.6.2 1.2.5 1.6.9.5.4.8.9 1.1 1.4.3.5.5 1.1.7 1.7.2.6.3 1.2.4 1.9.1.6.1 1.3.1 1.9v7.9h-1.7c-.1-.1-.1-.2-.2-.4s-.1-.4-.1-.7v-.8c-.5.4-.9.7-1.4 1-.5.2-1 .5-1.5.6-.5.2-1 .3-1.4.3-.4.1-.9.1-1.3.1h-.2c-.7 0-1.3-.1-2-.4-.6-.2-1.2-.5-1.7-.9s-.9-.9-1.2-1.4c-.3-.5-.4-1.2-.4-1.8 0-.7.2-1.4.4-2 .3-.6.8-1.1 1.4-1.5.6-.4 1.4-.7 2.3-1 .9-.2 2-.3 3.3-.3h1.2c.7.1 1.4.1 2.1.2l.5.1c-.1-1.1-.3-2-.5-2.7s-.6-1.2-.9-1.6c-.4-.4-.8-.7-1.3-.8s-1-.2-1.5-.2-1.1.1-1.6.2c-.5.2-.9.4-1.4.7l-.5.3c-.2.1-.4.2-.7.2-.4 0-.8-.1-1.2-.5l-.5-.2zm4.1 11.8c.4 0 .9 0 1.4-.1s1-.2 1.5-.4 1-.4 1.6-.6c.5-.2 1-.5 1.5-.7v-3.4c-.5-.1-.9-.1-1.4-.1-.4 0-.7 0-1.2-.1h-1.2c-.8 0-1.5 0-2.2.1-.7.1-1.2.3-1.7.5s-.9.5-1.1.9c-.3.4-.4.8-.4 1.4 0 .4.1.7.2 1s.4.6.7.8c.3.2.6.4 1 .5.4.1.8.2 1.3.2zm14.2-19.8v21.5h-2V459h2zm7.1 0v21.5h-2V459h2zm12.1 5.5c1.8 0 3.6.6 5.1 1.7.7.5 1.3 1.2 1.8 1.9s.9 1.6 1.1 2.4c.1.2.1.4.1.5 0 .3-.1.5-.1.7-.1.2-.2.4-.4.6-.3.4-.8.6-1.3.6h-12.6c0 .8.2 1.6.6 2.3s.8 1.3 1.4 1.8c.6.5 1.2.9 2 1.2.8.3 1.6.4 2.4.4.3 0 .6 0 .9-.1.3-.1.6-.1.9-.2.3-.1.6-.2.9-.4.3-.1.6-.3.8-.4.1-.1.3-.2.5-.2s.4-.1.5-.1c.2 0 .3 0 .4.1.1 0 .2.1.4.1.1.1.2.1.3.2.1.1.2.2.4.3-.4.4-.8.7-1.3 1-.5.3-1 .6-1.5.8-.5.2-1.1.4-1.6.6-.6.1-1.1.2-1.7.2-.8 0-1.5-.1-2.2-.3-.7-.2-1.4-.5-2-.8-.6-.3-1.2-.8-1.7-1.3s-.9-1-1.3-1.6c-.4-.6-.7-1.3-.9-1.9-.2-.7-.3-1.4-.3-2.2 0-1.1.2-2.2.7-3.2.4-1 1-1.8 1.8-2.6.8-.7 1.7-1.3 2.7-1.7 1-.2 2.1-.4 3.2-.4zm0 1.9c-.8 0-1.6.1-2.3.4-.7.3-1.4.6-1.9 1.1-.6.5-1 1-1.4 1.7-.4.7-.6 1.4-.7 2.1.1-.1.1-.3.3-.4.1-.2.3-.2.5-.2h11.6c-.2-.7-.5-1.4-.9-2-.8-1.1-1.9-2-3.2-2.4-.6-.2-1.3-.3-2-.3zm12.4-1.6c.1.1.1.2.1.3 0 .1.1.2.1.4v1.8c.2-.4.5-.8.9-1.1.4-.3.9-.6 1.4-.9.5-.3 1.1-.4 1.7-.6.6-.1 1.2-.2 1.8-.2.6 0 1.2.1 1.8.3l-.2.8c0 .2-.1.4-.2.5l-.3.3c-.1.1-.3.1-.4.1H.3c-.8 0-1.5.1-2.1.4-.7.2-1.3.6-1.8.9-.5.4-.9.8-1.2 1.3-.3.5-.5.9-.5 1.4v10h-2v-15.8h1.7v.1zm7.8 14.4c0-.4.2-.8.4-1.1.1-.1.3-.2.5-.3.2-.1.4-.1.6-.1s.4 0 .6.1c.4.1.7.4.8.8.1.2.1.4.1.6 0 .2 0 .4-.1.6-.2.4-.5.7-.8.8-.2.1-.4.1-.6.1-.4 0-.8-.2-1.1-.4-.1-.1-.3-.3-.3-.5-.1-.2-.1-.4-.1-.6zm13.9-12.8c-.9 0-1.7.2-2.5.5s-1.5.8-2 1.3c-.6.6-1 1.2-1.4 2-.3.8-.5 1.6-.5 2.4s.2 1.7.5 2.4.8 1.4 1.4 2 1.2 1 2 1.3c.8.3 1.6.5 2.5.5.5 0 1.1-.1 1.6-.2s1-.3 1.5-.6c.2-.1.3-.1.5-.2s.3-.1.5-.1c.3 0 .5.1.7.2.2.1.4.3.6.5l.2.2c-.3.3-.6.6-1.1.8-.4.3-.9.5-1.3.7-.5.2-1 .4-1.6.5-.6.1-1.1.2-1.7.2-.8 0-1.5-.1-2.2-.3-.7-.2-1.4-.5-2-.8-.6-.3-1.2-.8-1.7-1.3s-.9-1-1.3-1.6c-.4-.6-.7-1.3-.9-1.9-.2-.7-.3-1.4-.3-2.1 0-.7.1-1.5.3-2.2.2-.7.5-1.3.9-1.9.4-.6.8-1.2 1.3-1.6.5-.5 1.1-.9 1.7-1.3.6-.4 1.3-.6 2-.8.7-.2 1.5-.3 2.2-.3.6 0 1.1.1 1.7.2 1 .2 2 .6 2.9 1.2.4.3.8.6 1.1.9l-.2.2c-.2.2-.4.4-.6.5-.2.1-.5.2-.8.2-.2 0-.3 0-.5-.1-.1-.1-.3-.1-.4-.2-.5-.3-1-.5-1.5-.6-.5-.5-1.1-.5-1.6-.6zm6.5 6.2c0-.7.1-1.5.3-2.2.2-.7.5-1.3.9-1.9.4-.6.8-1.2 1.3-1.6.5-.5 1.1-.9 1.7-1.3.6-.4 1.3-.6 2-.8.7-.2 1.5-.3 2.2-.3 1.1 0 2.2.2 3.2.6 1 .4 1.9 1 2.7 1.7.8.7 1.4 1.6 1.8 2.6.4 1 .7 2.1.7 3.2s-.2 2.2-.7 3.2c-.4 1-1 1.8-1.8 2.6-.8.7-1.6 1.3-2.7 1.7-1 .4-2.1.6-3.2.6-.7 0-1.5-.1-2.2-.3-.7-.2-1.4-.5-2-.8-.6-.3-1.2-.8-1.7-1.3s-.9-1-1.3-1.6c-.4-.6-.7-1.3-.9-1.9-.2-.7-.3-1.4-.3-2.2zm2 0c0 .9.2 1.7.5 2.4s.8 1.4 1.4 2c.6.6 1.2 1 2 1.3.8.3 1.6.5 2.5.5.9 0 1.7-.2 2.5-.5s1.4-.8 2-1.3c.6-.6 1-1.2 1.4-2s.5-1.6.5-2.4-.2-1.7-.5-2.4-.8-1.4-1.4-2c-.6-.6-1.3-1-2-1.3-.8-.3-1.6-.5-2.5-.5-.9 0-1.7.2-2.5.5s-1.5.8-2 1.3c-.6.6-1 1.2-1.4 2s-.5 1.6-.5 2.4zm34.5-8.1c1.1 0 2 .2 2.7.5.7.3 1.3.9 1.7 1.5.4.6.7 1.4.9 2.2.2.9.2 1.8.2 2.7v9h-2v-9c0-.6-.1-1.2-.2-1.8-.1-.6-.3-1.1-.6-1.6s-.6-.9-1.1-1.2c-.5-.3-1-.4-1.8-.4-.6 0-1.2.1-1.8.2-.5.2-1 .4-1.3.7-.4.3-.7.6-.9 1-.2.4-.3.7-.4 1.1v11.1h-2v-9.9c-.1-.7-.2-1.4-.5-2.1-.2-.4-.4-.7-.6-1-.2-.3-.6-.5-.9-.7s-.8-.3-1.3-.3c-.9 0-1.6.1-2.1.3-.6.2-1 .5-1.4.8-.4.3-.6.6-.8 1-.1.3-.2.6-.2.9v11.1h-2v-15.8h1.7c.1.1.1.2.2.3s.1.3.1.4v1.4c.1-.2.2-.4.5-.7.3-.3.6-.5 1-.8.4-.2.9-.5 1.4-.6.6-.2 1.2-.3 1.8-.3.7 0 1.2.1 1.7.3s.9.4 1.3.7c.4.3.7.6.9 1 .2.4.4.8.5 1.1.3-.5.6-1 1-1.5.4-.4.8-.7 1.2-1s.9-.4 1.4-.5c.5 0 1.1-.1 1.7-.1z"/></svg>