<svg id="Layer_1" xmlns="http://www.w3.org/2000/svg" viewBox="414.2 397 99.3 16.1"><style>.st0{fill:#a7a9ac}</style><path class="st0" d="M415.5 405.1c0 .6.1 1.2.2 1.8.2.6.4 1.1.7 1.6s.6 1 1 1.4.9.8 1.4 1c.5.3 1 .5 1.6.7s1.2.2 1.8.2c.7 0 1.4-.1 2-.3.6-.2 1.2-.5 1.8-.9.1-.1.2-.1.3-.2.1 0 .2-.1.4-.1s.4 0 .6.1c.2.1.3.2.4.3l.1.1c-.7.7-1.6 1.2-2.5 1.6-1 .4-2 .6-3.1.6s-2.2-.2-3.1-.6c-1-.4-1.8-1-2.6-1.7-.7-.7-1.3-1.6-1.7-2.6s-.6-2-.6-3.1.2-2.2.6-3.1c.4-1 1-1.8 1.7-2.6.7-.7 1.6-1.3 2.6-1.7 1-.4 2-.6 3.1-.6s2.1.2 3.1.6c.9.4 1.8 1 2.5 1.7l-.1.1c-.1.1-.3.2-.4.3s-.3.1-.5.1c-.3 0-.5-.1-.7-.2-.5-.4-1.1-.7-1.8-.9-.6-.2-1.3-.3-2-.3-.6 0-1.2.1-1.8.2-.6.2-1.1.4-1.6.7-.5.3-.9.6-1.4 1-.4.4-.8.9-1 1.4-.3.5-.5 1-.7 1.6s-.3 1.2-.3 1.8zm13.1 0c0-1.1.2-2.2.6-3.1s1-1.8 1.7-2.6 1.6-1.3 2.6-1.7c1-.4 2-.6 3.1-.6s2.2.2 3.1.6c1 .4 1.8 1 2.6 1.7.7.7 1.3 1.6 1.7 2.6s.6 2 .6 3.1-.2 2.2-.6 3.1c-.4 1-1 1.8-1.7 2.6-.7.7-1.6 1.3-2.6 1.7-1 .4-2 .6-3.1.6s-2.2-.2-3.1-.6c-1-.4-1.8-1-2.6-1.7-.7-.7-1.3-1.6-1.7-2.6s-.6-2-.6-3.1zm1.4 0c0 .6.1 1.2.2 1.8.2.6.4 1.1.7 1.6s.6 1 1 1.4.9.8 1.4 1c.5.3 1 .5 1.6.7s1.2.2 1.8.2 1.2-.1 1.8-.2c.6-.2 1.1-.4 1.6-.7.5-.3.9-.6 1.4-1 .4-.4.8-.9 1-1.4.3-.5.5-1 .7-1.6s.2-1.2.2-1.8c0-.9-.2-1.8-.5-2.6-.4-.8-.8-1.5-1.4-2.1-.6-.6-1.3-1.1-2.1-1.4-.8-.4-1.7-.5-2.6-.5-.6 0-1.2.1-1.8.2-.6.2-1.1.4-1.6.7-.5.3-.9.6-1.4 1-.4.4-.8.9-1 1.4-.3.5-.5 1-.7 1.6s-.3 1.1-.3 1.7zm30.2 7.9h-1.4l-9.5-13.6s-.1-.1-.1-.2 0-.1-.1-.2c0-.1-.1-.1-.1-.2V413h-1.4v-15.8h1c.3 0 .5 0 .7.1s.3.2.4.4l8.7 12.5c.1.1.1.2.1.2 0 .1.1.2.1.2 0 .1.1.2.1.3v-13.7h1.4l.1 15.8zm2.2-14.4v-1.4h11.8v1.4H469V413h-1.4v-14.4h-5.2zm16.7-1.4h1.2c.6 1.3 1.2 2.7 1.7 4 .6 1.3 1.1 2.6 1.7 3.9.6 1.3 1.1 2.6 1.7 3.9.6 1.3 1.1 2.6 1.7 4h-.6c-.3 0-.5-.1-.7-.2s-.4-.3-.5-.6l-1.3-2.9h-8.7l-1.3 2.9c-.1.2-.3.4-.5.6-.2.1-.5.2-.7.2h-.6l6.9-15.8zm-3.1 10.7h7.5l-3.5-8.1c0-.1-.1-.2-.1-.3 0-.1-.1-.2-.1-.3v-.3c0 .1 0 .2-.1.3 0 .1 0 .2-.1.3 0 .1-.1.2-.1.3l-3.5 8.1zm12.3-2.8c0 .6.1 1.2.2 1.8.2.6.4 1.1.7 1.6s.6 1 1 1.4.9.8 1.4 1c.5.3 1 .5 1.6.7s1.2.2 1.8.2c.7 0 1.4-.1 2-.3.6-.2 1.2-.5 1.8-.9.1-.1.2-.1.3-.2.1 0 .2-.1.4-.1s.4 0 .6.1c.2.1.3.2.4.3l.1.1c-.7.7-1.6 1.2-2.5 1.6-1 .4-2 .6-3.1.6s-2.2-.2-3.1-.6c-1-.4-1.8-1-2.6-1.7-.7-.7-1.3-1.6-1.7-2.6s-.6-2-.6-3.1.2-2.2.6-3.1c.4-1 1-1.8 1.7-2.6.7-.7 1.6-1.3 2.6-1.7 1-.4 2-.6 3.1-.6s2.1.2 3.1.6c.9.4 1.8 1 2.5 1.7l-.1.1c-.1.1-.3.2-.4.3s-.3.1-.5.1c-.3 0-.5-.1-.7-.2-.5-.4-1.1-.7-1.8-.9-.6-.2-1.3-.3-2-.3-.6 0-1.2.1-1.8.2-.6.2-1.1.4-1.6.7-.5.3-.9.6-1.4 1-.4.4-.8.9-1 1.4-.3.5-.5 1-.7 1.6s-.3 1.2-.3 1.8zm13.5-6.5v-1.4h11.7v1.4h-5.2V413h-1.4v-14.4h-5.1z"/></svg>